<mxfile host="app.diagrams.net" agent="Mozilla/5.0 (X11; Linux x86_64; rv:132.0) Gecko/20100101 Firefox/132.0" version="26.0.16">
  <diagram name="Page-1" id="zWTBiicn6r-YAf4I7jgO">
    <mxGraphModel dx="1647" dy="955" grid="1" gridSize="10" guides="1" tooltips="1" connect="1" arrows="1" fold="1" page="1" pageScale="1" pageWidth="850" pageHeight="1100" math="0" shadow="0">
      <root>
        <mxCell id="0" />
        <mxCell id="1" parent="0" />
        <mxCell id="G1_wsP5PcfOU334YOqP6-1" value="Layer" style="ellipse;whiteSpace=wrap;html=1;fillColor=#dae8fc;strokeColor=#6c8ebf;" vertex="1" parent="1">
          <mxGeometry x="70" y="160" width="90" height="50" as="geometry" />
        </mxCell>
        <mxCell id="G1_wsP5PcfOU334YOqP6-2" value="" style="endArrow=classic;html=1;rounded=0;exitX=0.5;exitY=1;exitDx=0;exitDy=0;" edge="1" parent="1" source="G1_wsP5PcfOU334YOqP6-1">
          <mxGeometry width="50" height="50" relative="1" as="geometry">
            <mxPoint x="240" y="250" as="sourcePoint" />
            <mxPoint x="240" y="230" as="targetPoint" />
            <Array as="points">
              <mxPoint x="115" y="230" />
            </Array>
          </mxGeometry>
        </mxCell>
        <mxCell id="G1_wsP5PcfOU334YOqP6-3" value="Tim-Gruppe" style="ellipse;whiteSpace=wrap;html=1;fillColor=#dae8fc;strokeColor=#6c8ebf;" vertex="1" parent="1">
          <mxGeometry x="243" y="205" width="90" height="50" as="geometry" />
        </mxCell>
        <mxCell id="G1_wsP5PcfOU334YOqP6-5" value="Layer" style="ellipse;whiteSpace=wrap;html=1;fillColor=#dae8fc;strokeColor=#6c8ebf;" vertex="1" parent="1">
          <mxGeometry x="243" y="370" width="90" height="50" as="geometry" />
        </mxCell>
        <mxCell id="G1_wsP5PcfOU334YOqP6-7" value="" style="endArrow=classic;html=1;rounded=0;exitX=0.5;exitY=1;exitDx=0;exitDy=0;" edge="1" parent="1" source="G1_wsP5PcfOU334YOqP6-1">
          <mxGeometry width="50" height="50" relative="1" as="geometry">
            <mxPoint x="125" y="220" as="sourcePoint" />
            <mxPoint x="240" y="370" as="targetPoint" />
            <Array as="points">
              <mxPoint x="115" y="370" />
            </Array>
          </mxGeometry>
        </mxCell>
        <mxCell id="G1_wsP5PcfOU334YOqP6-9" value="Group" style="ellipse;whiteSpace=wrap;html=1;" vertex="1" parent="1">
          <mxGeometry x="386" y="435" width="90" height="50" as="geometry" />
        </mxCell>
        <mxCell id="G1_wsP5PcfOU334YOqP6-10" value="" style="endArrow=classic;html=1;rounded=0;exitX=0.5;exitY=1;exitDx=0;exitDy=0;" edge="1" parent="1" source="G1_wsP5PcfOU334YOqP6-5">
          <mxGeometry width="50" height="50" relative="1" as="geometry">
            <mxPoint x="288" y="455" as="sourcePoint" />
            <mxPoint x="380" y="465" as="targetPoint" />
            <Array as="points">
              <mxPoint x="288" y="465" />
            </Array>
          </mxGeometry>
        </mxCell>
        <mxCell id="G1_wsP5PcfOU334YOqP6-12" value="" style="endArrow=classic;html=1;rounded=0;exitX=0.5;exitY=1;exitDx=0;exitDy=0;" edge="1" parent="1" source="G1_wsP5PcfOU334YOqP6-3">
          <mxGeometry width="50" height="50" relative="1" as="geometry">
            <mxPoint x="400" y="520" as="sourcePoint" />
            <mxPoint x="400" y="280" as="targetPoint" />
            <Array as="points">
              <mxPoint x="288" y="280" />
            </Array>
          </mxGeometry>
        </mxCell>
        <mxCell id="G1_wsP5PcfOU334YOqP6-13" value="Rolle" style="ellipse;whiteSpace=wrap;html=1;" vertex="1" parent="1">
          <mxGeometry x="408" y="255" width="90" height="50" as="geometry" />
        </mxCell>
        <mxCell id="G1_wsP5PcfOU334YOqP6-14" value="Rolle" style="ellipse;whiteSpace=wrap;html=1;" vertex="1" parent="1">
          <mxGeometry x="409" y="313" width="90" height="50" as="geometry" />
        </mxCell>
        <mxCell id="G1_wsP5PcfOU334YOqP6-15" value="" style="endArrow=classic;html=1;rounded=0;exitX=0.5;exitY=1;exitDx=0;exitDy=0;" edge="1" parent="1" source="G1_wsP5PcfOU334YOqP6-3">
          <mxGeometry width="50" height="50" relative="1" as="geometry">
            <mxPoint x="400" y="520" as="sourcePoint" />
            <mxPoint x="400" y="340" as="targetPoint" />
            <Array as="points">
              <mxPoint x="288" y="340" />
            </Array>
          </mxGeometry>
        </mxCell>
        <mxCell id="G1_wsP5PcfOU334YOqP6-16" value="" style="endArrow=classic;html=1;rounded=0;exitX=0.5;exitY=1;exitDx=0;exitDy=0;" edge="1" parent="1">
          <mxGeometry width="50" height="50" relative="1" as="geometry">
            <mxPoint x="430" y="485" as="sourcePoint" />
            <mxPoint x="530" y="520" as="targetPoint" />
            <Array as="points">
              <mxPoint x="430" y="520" />
            </Array>
          </mxGeometry>
        </mxCell>
        <mxCell id="G1_wsP5PcfOU334YOqP6-17" value="Rolle" style="ellipse;whiteSpace=wrap;html=1;" vertex="1" parent="1">
          <mxGeometry x="540" y="490" width="90" height="50" as="geometry" />
        </mxCell>
        <mxCell id="G1_wsP5PcfOU334YOqP6-18" value="" style="endArrow=classic;html=1;rounded=0;exitX=0.5;exitY=1;exitDx=0;exitDy=0;" edge="1" parent="1" source="G1_wsP5PcfOU334YOqP6-17">
          <mxGeometry width="50" height="50" relative="1" as="geometry">
            <mxPoint x="580" y="570" as="sourcePoint" />
            <mxPoint x="680" y="570" as="targetPoint" />
            <Array as="points">
              <mxPoint x="585" y="570" />
            </Array>
          </mxGeometry>
        </mxCell>
        <mxCell id="G1_wsP5PcfOU334YOqP6-19" value="Person" style="ellipse;whiteSpace=wrap;html=1;" vertex="1" parent="1">
          <mxGeometry x="690" y="540" width="90" height="50" as="geometry" />
        </mxCell>
        <mxCell id="G1_wsP5PcfOU334YOqP6-20" value="" style="endArrow=classic;html=1;rounded=0;exitX=0.5;exitY=1;exitDx=0;exitDy=0;" edge="1" parent="1" source="G1_wsP5PcfOU334YOqP6-14">
          <mxGeometry width="50" height="50" relative="1" as="geometry">
            <mxPoint x="400" y="520" as="sourcePoint" />
            <mxPoint x="530" y="400" as="targetPoint" />
            <Array as="points">
              <mxPoint x="454" y="400" />
            </Array>
          </mxGeometry>
        </mxCell>
        <mxCell id="G1_wsP5PcfOU334YOqP6-21" value="Person" style="ellipse;whiteSpace=wrap;html=1;" vertex="1" parent="1">
          <mxGeometry x="540" y="370" width="90" height="50" as="geometry" />
        </mxCell>
        <mxCell id="G1_wsP5PcfOU334YOqP6-22" value="Person" style="ellipse;whiteSpace=wrap;html=1;" vertex="1" parent="1">
          <mxGeometry x="690" y="600" width="90" height="50" as="geometry" />
        </mxCell>
        <mxCell id="G1_wsP5PcfOU334YOqP6-23" value="" style="endArrow=classic;html=1;rounded=0;exitX=0.5;exitY=1;exitDx=0;exitDy=0;" edge="1" parent="1" source="G1_wsP5PcfOU334YOqP6-17">
          <mxGeometry width="50" height="50" relative="1" as="geometry">
            <mxPoint x="600" y="710" as="sourcePoint" />
            <mxPoint x="680" y="630" as="targetPoint" />
            <Array as="points">
              <mxPoint x="585" y="630" />
            </Array>
          </mxGeometry>
        </mxCell>
        <mxCell id="G1_wsP5PcfOU334YOqP6-24" value="" style="endArrow=classic;html=1;rounded=0;" edge="1" parent="1" source="G1_wsP5PcfOU334YOqP6-14">
          <mxGeometry width="50" height="50" relative="1" as="geometry">
            <mxPoint x="505" y="338" as="sourcePoint" />
            <mxPoint x="736" y="530" as="targetPoint" />
            <Array as="points">
              <mxPoint x="736" y="340" />
            </Array>
          </mxGeometry>
        </mxCell>
        <mxCell id="G1_wsP5PcfOU334YOqP6-25" value="Tim" style="shape=umlActor;verticalLabelPosition=bottom;verticalAlign=top;html=1;outlineConnect=0;fillColor=#dae8fc;strokeColor=#6c8ebf;" vertex="1" parent="1">
          <mxGeometry x="640" y="360" width="30" height="60" as="geometry" />
        </mxCell>
      </root>
    </mxGraphModel>
  </diagram>
</mxfile>
